<?xml version="1.0" encoding="utf-8"?>
<!DOCTYPE svg PUBLIC "-//W3C//DTD SVG 1.1//EN" "http://www.w3.org/Graphics/SVG/1.1/DTD/svg11.dtd">
<svg
  version="1.1"
  xmlns="http://www.w3.org/2000/svg"
  xmlns:xlink="http://www.w3.org/1999/xlink"
  x="0px"
  y="0px"
  width="100px"
  height="100px"
  viewBox="0 0 100 100"
  enable-background="new 0 0 100 100"
  xml:space="preserve">
  <g>
    <path xmlns="http://www.w3.org/2000/svg" fill="#878a8e" class="st0" d="M24 1h2.2c.6 0 1 .4 1 1v14c0 .6-.4 1-1 1H24c-.6 0-1-.4-1-1V2c0-.5.4-1 1-1zm9.8 0H36c.6 0 1 .4 1 1v14c0 .6-.4 1-1 1h-2.2c-.6 0-1-.4-1-1V2c0-.5.4-1 1-1z"/>
  </g>
</svg>
