<svg width="20" height="20" xmlns="http://www.w3.org/2000/svg" xmlns:svg="http://www.w3.org/2000/svg">
 <g>
  <g id="svg_1">
   <path id="svg_2" d="m7,5.32008c-0.5,0.4 -1.2,0.6 -1.8,0.6l-3.2,0c-0.6,0 -1,0.4 -1,1l0,5.7c0,0.6 0.4,1 1,1l4.2,0c0.3,0.2 0.5,0.4 0.8,0.6l3.5,2.6c0.4,0.3 0.8,0.1 0.8,-0.4l0,-13.4c0,-0.5 -0.4,-0.7 -0.8,-0.4l-3.5,2.7z" class="st0" fill="#c4c4c3" xmlns="http://www.w3.org/2000/svg"/>
   <path id="svg_3" fill="none" stroke="#c4c4c3" stroke-width="1.5" stroke-linecap="round" d="m13.9,2.02008s3.9,-0.8 3.9,7.7s-3.9,7.8 -3.9,7.8" class="st1" xmlns="http://www.w3.org/2000/svg"/>
   <path id="svg_4" fill="none" stroke="#c4c4c3" stroke-width="1.5" stroke-linecap="round" d="m12.6,5.92008s2.6,-0.4 2.6,3.8s-2.6,3.9 -2.6,3.9" class="st1" xmlns="http://www.w3.org/2000/svg"/>
  </g>
 </g>
</svg>
