<svg version="1.1" class="logo-svg" xmlns="http://www.w3.org/2000/svg" xmlns:xlink="http://www.w3.org/1999/xlink" x="0px" y="0px" width="289.3px" height="110.3px" viewBox="0 0 289.3 110.3" style="enable-background:new 0 0 289.3 110.3;" xml:space="preserve">
<style type="text/css">

	.lyceum {fill:#FFFFFF;}
	.line {fill:none;stroke:#FFFFFF;stroke-miterlimit:10;}
  .st0{fill:#C4161C;}
	.st1{fill:#FFFFFF;}
	.st3{fill:none;stroke:#FFFFFF;}
	.st4{clip-path:url(#SVGID_2_);fill:none;stroke:#FFFFFF;stroke-width:0.5;}
	.st5{clip-path:url(#SVGID_4_);fill:none;stroke:#FFFFFF;stroke-width:0.5;}
	.st6{fill:none;stroke:#FFFFFF;stroke-width:0.5;}
</style>
<g>
	<g class="area9">
		<path class="st1" d="M10.4,52.2L23.9,52v-3.9c0-2.4-0.8-3.9-2.7-4.8c-1.4-0.6-3.3-0.8-6-0.8C8.9,42.5,2.7,44,2.7,44l-0.6-3.4
			c0,0,5.4-1.5,12.9-1.5c4.3,0,7.4,0.4,9.6,1.6c2.4,1.2,3.4,3.4,3.4,7.3v18.6c0,0.9,0.1,1.1,0.9,1.2l1.7,0.3v2.7h-6.5l-0.3-1.7
			c-0.1-0.4-0.2-1.1-1.1-1.1c-0.5,0-1,0.3-1.4,0.6l-3.1,2.2c0,0-3.5,0.5-6.3,0.5c-9.4,0-12.1-2-12.1-9.6C0,54.5,2.3,52.3,10.4,52.2
			 M23.9,55.2l-10.7,0.2c-5.8,0.1-8.8-0.7-8.8,6.3c0,5.8,2.4,6.1,8.4,6.1c4.6,0,11.1-1.5,11.1-1.5V55.2z"/>
		<path class="st1" d="M36.3,39.5h6.1l0.3,1.7c0.1,0.4,0.2,1.1,1.1,1.1c0.5,0,1-0.3,1.4-0.6l3.2-2.2c0,0,3.6-0.4,5.4-0.4
			c1.7,0,3,0.1,4.2,0.3l-0.3,4c0,0-2.5-0.3-5.2-0.3c-5.6,0-9.4,0.7-9.4,0.7v22.9c0,0.8,0.1,1,0.9,1.2l1.7,0.3v2.6h-9.5v-2.7l1.7-0.3
			c0.8-0.1,0.9-0.3,0.9-1.2V43.7c0-0.8-0.1-1-0.9-1.2l-1.7-0.3V39.5z"/>
		<path class="st1" d="M75.1,67.8c6,0,10.9-1.1,10.9-1.1l0.6,3.2c0,0-4.3,1.3-11.2,1.3c-10.1,0-15.3-1.9-15.3-16.1
			c0-4.2,0.6-8.2,1.6-10.6c1.8-4.2,5.8-5.5,12.9-5.5c5.5,0,9.5,0.6,11.5,3.2c1.7,2.2,2.3,5.1,2.3,10.4c0,1.2-0.1,2.4-0.1,3.6
			c-1.1,0.1-5.3,0.5-10.3,0.5c-4.8,0-9.2-0.3-9.2-0.3l-2.1-1.4c-0.4-0.3-0.7-0.5-1.2-0.5c-1.3,0-1.1,1.2-1.1,2.1
			c0,2.8,0.1,6.4,2,8.6C68.1,67.1,71,67.8,75.1,67.8 M75,42.4c-9.8,0-10,1.8-10.4,10.4c4.6,0.7,10,0.6,10,0.6s5.5,0.1,9.5-0.3
			C84,43.4,82.1,42.4,75,42.4"/>
		<path class="st1" d="M105,52.2l13.5-0.2v-3.9c0-2.4-0.8-3.9-2.7-4.8c-1.4-0.6-3.3-0.8-6-0.8c-6.2,0-12.4,1.5-12.4,1.5l-0.6-3.4
			c0,0,5.4-1.5,12.9-1.5c4.3,0,7.4,0.4,9.6,1.6c2.4,1.2,3.5,3.4,3.5,7.3v18.6c0,0.9,0.1,1.1,0.9,1.2l1.7,0.3v2.7h-6.5l-0.3-1.7
			c-0.1-0.4-0.2-1.1-1.1-1.1c-0.5,0-1,0.3-1.4,0.6l-3.1,2.2c0,0-3.5,0.5-6.3,0.5c-9.4,0-12.1-2-12.1-9.6
			C94.6,54.5,96.9,52.3,105,52.2 M118.5,55.2l-10.7,0.2c-5.8,0.1-8.8-0.7-8.8,6.3c0,5.8,2.4,6.1,8.4,6.1c4.6,0,11.1-1.5,11.1-1.5
			V55.2z"/>
		<path class="st1" d="M150,25.5c8,0,12.5,0.9,14.9,4.4c3,4.4,2.7,13.2,2.7,18.5c0,5.2,0.3,14-2.7,18.4c-2.5,3.6-6.9,4.5-14.9,4.5
			c-7.6,0-13.8-1.6-13.8-1.6l0.6-3.6c0,0,6.5,1.5,13.1,1.5c5.7,0,9.2-0.7,11-3.2c2.1-3.1,1.9-9.4,1.9-13.1c0-0.6,0-1.3-1-1.3
			c-0.5,0-0.9,0.3-1.3,0.5l-3.7,2.6c0,0-4.1,0.8-6.9,0.8c-12.4,0-16.2-2.1-16.2-14.1C133.8,27.5,138.9,25.5,150,25.5 M150.5,49.9
			c6.5,0,12.5-2,12.5-2c0.1-2.2,0.1-1.7,0-6.1c-0.2-9.2-1.2-12.5-12.3-12.5c-8.6-0.1-12.1,0.4-12.1,10.3
			C138.5,49.5,141.9,49.9,150.5,49.9"/>
	</g>
  <g class="lyceum">
    <path class="st1" d="M124.8,96.1h1.4v-9.8h0l2.5,9.8h1.4l2.5-9.8h0v9.8h1.4V84.8h-2.3l-2.3,8.9h0l-2.3-8.9h-2.3V96.1z M111.1,92.7
  		c0,2.3,1,3.6,3.3,3.6c2.2,0,3.3-1.4,3.3-3.6v-7.9h-1.4v7.9c0,1.6-0.4,2.4-1.9,2.4c-1.4,0-1.9-0.8-1.9-2.4v-7.9h-1.4V92.7z
  		 M98.3,96.1h6v-1.2h-4.6v-4h4.2v-1.2h-4.2V86h4.4v-1.2h-5.8V96.1z M89.9,92.2c0,1.4-0.3,2.9-2,2.9c-1.9,0-2.2-2.1-2.2-4.7
  		c0-2.6,0.3-4.7,2.2-4.7c1.4,0,1.8,1.1,1.9,2.4h1.4c-0.1-2.2-1-3.5-3.3-3.5c-3.1,0-3.6,3-3.6,5.8c0,2.8,0.4,5.8,3.6,5.8
  		c2.5,0,3.3-2,3.4-4.1H89.9z M73.6,91.6v4.4h1.4v-4.4l3-6.8h-1.4l-2.2,5.3l-2.1-5.3h-1.5L73.6,91.6z M60.3,96.1h5.9v-1.2h-4.6v-10
  		h-1.4V96.1z"/>
  </g>
  <line class="line" x1="183.7" y1="0" x2="183.7" y2="110.3"/>
  <g class="brain">
    <path class="st1" d="M226.8,54c-0.9,0-1.9,0.1-1.9,1.7c0,1.5,4.5,2.2,5.6,2.6c1,0.4,5.3,0.8,6.3,1.3c1,0.5,1.6,0.9,3.4,1.1
  		c3.2,0.4,1.3-4.3,1.3-4.3c1.4-2,0.2-3.5-4-3.9c-4.2-0.4-5.7-2.5-6.5-3c-0.8-0.5-0.7-1.8,0.7-1.1c1.3,0.8,4.2,2.4,7.4,2.7
  		c3.2,0.4,3.1-2.4,2.8-5.4c-0.3-3-2.2-1.3-2.2-1.3c-5.3,3-5.4-2.4-9.4-0.7c-5.2,2.2-2.8,5.8-2,6.7c0.9,1,2.7,1.5,2.7,2.9
  		C230.9,54.8,227.7,54,226.8,54"/>
  	<path class="st1" d="M248.1,60.7c1.7-0.2,2.3-0.6,3.3-1.1c1-0.5,5.3-0.9,6.3-1.3c1-0.4,5.6-1,5.6-2.6c0-1.5-1.1-1.7-1.9-1.7
  		c-0.9,0-4,0.8-4-0.6s1.8-1.9,2.7-2.9c0.9-1,3.2-4.6-2-6.7c-4-1.7-4.1,3.7-9.4,0.7c0,0-1.9-1.6-2.2,1.3c-0.3,3-0.4,5.7,2.8,5.4
  		c3.2-0.4,6-2,7.4-2.7c1.3-0.8,1.4,0.5,0.7,1.1c-0.8,0.5-2.3,2.6-6.4,3c-4.2,0.4-5.4,1.9-4,3.9C246.8,56.4,244.8,61.1,248.1,60.7"/>
  	<path class="st1" d="M233,29.8c0,2.6-3.5,4.1-3.5,5.6c0,1.6,3.6,0.7,3.6,0.7c0,0.8-1.2,7.6,3.6,7.6c4.9,0,4.7-4.6,4.7-4.6
  		c0-5.3-4.5-6.8-5.6-6.8c-1.3-0.1-2,0.5-2-0.2c0-1,2.4-0.1,2.4-1.9c0-1.8,0.7-2.9,0.7-1.1c0,1.9,2.3,4.8,3.9,4.8
  		c1.5,0,1.6-2.1,1.6-2.1c0-3.1-3.2-5.1-4.7-5.1c-1.5,0-2,0.8-2-0.1c0-0.9,1.8-0.8,1.8-1.4c0-0.2,0.2-0.5-1-0.5
  		c-1.2,0-1.1-0.3-1.1-0.3s-0.3-0.8,1.5-0.8c1.8,0,2.2,0.9,2.2,1.5c0,0.6,0.2,2.2,1.8,2.2c1.5,0,1.5-2.8,1.5-4.7
  		c0-1.9-2.2-0.8-2.2-0.8c-1.3-0.6-2.8,1.1-2.8,1.1c-3.1,0-3.9,1.9-3.9,1.9c-1.2,0-2.9,0.1-2.9,1.5C230.5,27.8,233,26.1,233,29.8"/>
  	<path class="st1" d="M222.6,36.4c0.3,0,1.5-1.8,1.5-2.5c0-0.7,0.5-0.8,0.5,0.1c0,0.9-0.4,2.2-1.6,3.5c-1.3,1.3-2.1,3.3-2.1,4.6
  		c0,1.3-0.6,1.3-0.6,0c0-1.3,0.9-3.1,1.1-3.4c0.3-0.3,0.1-2.5-1.1-1.3c-1.2,1.2-3.7,6.4-3.7,8.4c0,2,0.5,0.6,0.5,0
  		c0-0.6,1.2-6.2,2.7-6.2c1.5,0-1.7,1.2-1.7,5.8c0,4.7,0.7,3.7,0.8,3.7c0,0,0.6-0.1,0.3-1.8c-0.4-1.7,0.9-1.7,0.9,0
  		c0,1.7-0.6,4.1,0.3,5.7c0.9,1.7,2.4,2.3,3.1,1.7c0.7-0.6,1-0.9,1.7-0.9c0.7,0,0.7-0.8-0.2-1.1c-0.9-0.3-2.7-1.4-2.7-2.8
  		c-0.1-1.4,0.8-0.4,1-0.1c0.3,0.3,2.7,3.5,5.2,3.4c2.5,0,1.1-1.3,0.4-1.6c-0.7-0.4-2.8-1.9-2.7-3c0.1-1,0.2-2.1-1.1-2.9
  		c-1.3-0.8-1.4-2.3,0.5-1.9c1.8,0.5,1.9,0.5,2.9-0.3c1-0.7,2.8-1.3,3.3-1.5c0.4-0.2,1.4-2-0.4-3.9c-1.8-1.9-4.5-0.8-5.1-0.1
  		c-0.6,0.7-1.7,1.8-1.9,2c-0.2,0.2-1.6,0.7-0.6-0.4c1-1.1,1.8-2.2,2.3-2.5c0.5-0.4,1.4-0.2,2-1.7c1-2.4,3.8-4.6,3.7-6.2
  		c-0.1-1.1-1.5-1.6-2.5-1.7c-3.4-0.3-4.3,3.6-4.3,3.8c0,0.2-2.4,2.8-2.4,3.6C222.2,36.1,222.3,36.4,222.6,36.4"/>
  	<path class="st1" d="M214.6,47.2c0,0,0.8,2.8,1.9,2.8c1.1,0,1.3-0.4,1.3-0.9c0-0.5-0.6-1-1.3-1.4c-0.8-0.4-1-1.6-0.3-4.1
  		c0.6-2.6,1.8-4.5,2.3-5.1c0.5-0.6,1.3-2.5,1.6-2.9c0.3-0.3,3.2-3.6,2-3.7c-0.8,0-4.5,2.7-4.6,3.9c0,0-3.3,3.2-2.9,5.1
  		C214.5,40.8,212.6,45.7,214.6,47.2"/>
  	<path class="st1" d="M230.7,69.6c3.1-1.1,2.4-2,2.7-2.7c0.3-0.8-0.1-1.3,1.7-1.1c1.8,0.2,2.7-1.3,2.7-2c-0.1-0.7-0.7-4.2-7.4-4.8
  		c-6.7-0.6-6.6-0.9-7.8-2c-1.2-1.1-3-2.7-3.4-4.7c-0.3-2-1.9-1.7-2.7-0.9c-0.8,0.9-3,1.9-2.2,0.9c0.8-1,2.2-2.8-0.4-3.7
  		c0,0-2.1-0.2-2.1,4c0,4.2,1.8,4.3,2.1,4.2c0.3-0.1,1.5-2,2.2-2c0.8,0,0.6,0.3-0.4,0.9c-1,0.7-0.6,1.8,0,2c0.6,0.2,1.8,0.2,2.1,0
  		c0.3-0.2,0.8-0.3,0.9,0.8c0.1,1.1,1.5,2.3,2.7,2.4c1.3,0.1,2.4,0.6,3.6,0.5c1.2,0,3,0.9,2,1.4c-1,0.5-2.7-0.1-3.3-0.4
  		c-0.6-0.3-2.2,0-3.3-0.6c-1.1-0.7-2.5-3.1-3.7-1.9c-1.2,1.2-0.2,4.5,1.3,4.9c1.5,0.4,1.9,1.2,2.9,1.5c1,0.3,2.9-0.2,3.8-0.2
  		c1,0,3.1,0,2,1.2c-1.1,1.2-5.6-0.1-5.9-0.4c-0.3-0.3-2.2-0.8-2.5-1.1c-0.3-0.3-1.5-1.4-1.8-1.8c-0.3-0.4-1.7-2.3-1.3-3.1
  		c0.4-0.9,1-2.3-0.5-2.2c-1.5,0.1-0.9,2.1-0.4,2.9c0.4,0.8,1.3,2.1,1.4,2.4c0.1,0.2,0.1,1.7,0.6,2.2c0.4,0.5,1.4,1.3,4.2,2.2
  		C223.6,69.6,227.6,70.7,230.7,69.6"/>
  	<path class="st1" d="M237.8,76.4c0.1-0.3,0-0.7-0.9-1.1c0,0-2.7-1-2.5-3.4c0.1-2.4-1.4-1.9-2-1.8c0,0-0.9,0.2-2.9,0.7
  		c-2,0.6-7.7-0.6-8.4-0.9c-0.7-0.2-2.3-0.7-2.1,2.1c0.2,2.8,1.4,3.9,2,4.1c0.6,0.2,1.1,1.7,2.4,2.3c1.3,0.6,4,1.5,4.5,1.5
  		c0.5,0.1,5.8,0.2,7,0.3c1.2,0,3.3,0.4,3.3-0.7C238,78.6,237.7,76.7,237.8,76.4"/>
  	<path class="st1" d="M250.6,26.8c-1.5,0-4.7,2-4.7,5.1c0,0,0.1,2.1,1.6,2.1c1.5,0,3.9-2.9,3.9-4.8c0-1.9,0.6-0.7,0.6,1.1
  		c0,1.8,2.4,0.8,2.4,1.9c0,0.7-0.6,0.1-2,0.2c-1.1,0.1-5.6,1.5-5.6,6.8c0,0-0.2,4.6,4.7,4.6s3.6-6.9,3.6-7.6c0,0,3.6,0.8,3.6-0.7
  		c0-1.6-3.5-3.1-3.5-5.6c0-3.6,2.4-2,2.4-3.3c0-1.5-1.8-1.5-2.9-1.5c0,0-0.8-1.9-3.9-1.9c0,0-1.5-1.8-2.8-1.1c0,0-2.2-1.1-2.2,0.8
  		c0,1.9,0,4.7,1.5,4.7c1.5,0,1.8-1.6,1.8-2.2c0-0.6,0.4-1.5,2.2-1.5c1.8,0,1.5,0.8,1.5,0.8s0.1,0.3-1.1,0.3c-1.2,0-1,0.4-1,0.5
  		c0,0.6,1.8,0.5,1.8,1.4C252.6,27.6,252,26.8,250.6,26.8"/>
  	<path class="st1" d="M256.7,29.5c-0.2,1.5,2.7,3.8,3.7,6.2c0.6,1.5,1.4,1.3,2,1.7c0.5,0.4,1.4,1.5,2.3,2.5c1,1.1-0.4,0.6-0.6,0.4
  		c-0.2-0.2-1.3-1.3-1.9-2c-0.6-0.7-3.3-1.8-5.1,0.1c-1.8,1.9-0.8,3.6-0.4,3.9c0.5,0.2,2.3,0.8,3.3,1.5c1,0.7,1.1,0.7,2.9,0.3
  		c1.9-0.5,1.8,1,0.5,1.9c-1.3,0.9-1.2,1.9-1.1,2.9c0.1,1-2,2.6-2.7,3c-0.7,0.4-2.1,1.6,0.4,1.6c2.5,0,4.9-3.1,5.1-3.4
  		c0.3-0.3,1.1-1.3,1,0.1c-0.1,1.4-1.9,2.5-2.7,2.8c-0.9,0.3-0.9,1-0.2,1.1c0.7,0,0.9,0.3,1.7,0.9c0.7,0.6,2.2,0,3.1-1.7
  		c0.9-1.7,0.3-4,0.3-5.7c0-1.7,1.3-1.7,0.9,0c-0.4,1.7,0.2,1.8,0.3,1.8c0,0,0.8,1,0.8-3.7c0-4.7-3.2-5.8-1.7-5.8
  		c1.5,0,2.7,5.6,2.7,6.2c0,0.6,0.5,2,0.5,0c0-2-2.5-7.2-3.7-8.4c-1.2-1.2-1.4,1-1.1,1.3c0.3,0.3,1.1,2.1,1.1,3.4
  		c0,1.3-0.6,1.3-0.6,0c0-1.3-0.8-3.4-2.1-4.6c-1.3-1.3-1.6-2.5-1.6-3.5c0-0.9,0.4-0.8,0.4-0.1c0,0.7,1.2,2.5,1.5,2.5
  		c0.3,0,0.4-0.3,0.4-1.1c0-0.8-2.4-3.4-2.4-3.6c0-0.2-0.9-4.1-4.3-3.8C258.2,27.9,256.8,28.5,256.7,29.5"/>
  	<path class="st1" d="M269.7,38.4c0.5,0.6,1.6,2.5,2.3,5.1c0.7,2.6,0.4,3.7-0.3,4.1c-0.8,0.4-1.3,0.9-1.3,1.4c0,0.5,0.2,0.9,1.3,0.9
  		c1.1,0,1.9-2.8,1.9-2.8c2-1.5,0.1-6.4,0.1-6.4c0.4-1.9-2.9-5.1-2.9-5.1c0-1.2-3.8-3.9-4.6-3.9c-1.2,0.1,1.7,3.4,2,3.7
  		C268.4,35.9,269.2,37.8,269.7,38.4"/>
  	<path class="st1" d="M274.2,48.8c-2.5,0.8-1.2,2.6-0.4,3.7c0.8,1-1.4-0.1-2.2-0.9c-0.8-0.9-2.4-1.1-2.7,0.9c-0.3,2-2.1,3.6-3.4,4.7
  		c-1.2,1.1-1.1,1.4-7.8,2c-6.7,0.6-7.3,4.1-7.4,4.8c-0.1,0.7,0.9,2.2,2.7,2c1.8-0.2,1.4,0.3,1.7,1.1c0.3,0.8-0.4,1.6,2.7,2.7
  		c3.1,1.1,7.1,0,10-0.9c2.9-0.8,3.8-1.7,4.2-2.2c0.4-0.5,0.4-2,0.6-2.2c0.1-0.2,0.9-1.5,1.4-2.4c0.5-0.9,1.1-2.8-0.4-2.9
  		c-1.5-0.1-0.9,1.3-0.5,2.2c0.4,0.8-1,2.8-1.3,3.1c-0.3,0.4-1.4,1.5-1.8,1.8c-0.3,0.3-2.2,0.8-2.5,1.1c-0.3,0.3-4.9,1.6-5.9,0.4
  		c-1.1-1.2,1.1-1.3,2-1.2c1,0,2.9,0.5,3.8,0.2c1-0.3,1.4-1.1,2.9-1.5c1.5-0.4,2.5-3.7,1.3-4.9c-1.2-1.2-2.6,1.3-3.7,1.9
  		c-1.1,0.6-2.7,0.3-3.3,0.6c-0.6,0.3-2.2,0.9-3.3,0.4c-1-0.5,0.8-1.5,2-1.4c1.2,0,2.3-0.4,3.6-0.5c1.3-0.1,2.6-1.3,2.7-2.4
  		c0.1-1.1,0.6-1.1,0.9-0.8c0.3,0.2,1.5,0.2,2.1,0c0.6-0.2,1-1.4,0-2c-1-0.6-1.1-0.9-0.4-0.9c0.8,0,2,1.9,2.3,2
  		c0.3,0.1,2.1,0,2.1-4.2C276.4,48.6,274.2,48.8,274.2,48.8"/>
  	<path class="st1" d="M267.2,70.1c-0.7,0.2-6.4,1.4-8.4,0.9c-2-0.6-3-0.7-3-0.7c-0.6-0.1-2.1-0.6-2,1.8c0.1,2.4-2.5,3.4-2.5,3.4
  		c-0.9,0.4-1,0.9-0.9,1.1c0.1,0.3-0.3,2.2-0.2,3.2c0,1.1,2.2,0.7,3.3,0.7c1.2,0,6.5-0.2,7-0.3c0.5-0.1,3.1-1,4.5-1.5
  		c1.3-0.6,1.8-2.1,2.4-2.3c0.6-0.2,1.7-1.3,2-4.1C269.6,69.4,267.9,69.8,267.2,70.1"/>
  	<path class="st1" d="M252.9,71.6c0.3-1.4-0.6-2.4-1.4-2.3c-0.8,0-0.4-1-0.4-1.2c0-0.3,0-1.1,1.2-0.2c1.2,0.9,1.3,1.4,1.9,1.5
  		c0.5,0,0.9-0.2,0.7-0.6c-0.2-0.4-1-1.3-1-1.6c0-0.3-0.4-0.8-0.4-0.8c-0.6-0.1-1.8-0.1-4.1,1.2c-1.1,0.6-1.9,1.1-2.5,1.4
  		c-2,1.1-3.6,0.9-4.5,0.5c-0.3-0.2-0.7-0.4-1.2-0.7c-0.6-0.3-1.2-0.7-2.1-1.2c-2.4-1.3-3.6-1.3-4.1-1.2c0,0-0.4,0.4-0.4,0.8
  		c0,0.3-0.8,1.2-1,1.6c-0.2,0.4,0.2,0.6,0.7,0.6c0.5,0,0.6-0.6,1.9-1.5c1.2-0.8,1.2,0,1.2,0.2c0,0.3,0.4,1.2-0.4,1.2
  		c-0.8,0-1.8,0.9-1.4,2.3c0.3,1.4,1.5,2.2,2.4,2.5c1,0.2,1.4,1.1,2,1.7c0.5,0.5,2,0.4,2.8,0c1.4-0.2,2.5-0.1,3.1,0.1
  		c0.9,0.4,2.3,0.4,2.7,0c0.6-0.6,1-1.5,2-1.7C251.4,73.8,252.5,73,252.9,71.6"/>
  	<path class="st1" d="M248.1,81.3c0.3-0.2,1-1.4,1-3.2c0-1.8-1.4-1.5-2-1.5c-0.2,0-1.4,0.2-2.7,0.3c-0.7,0-3.1-0.2-3.3-0.3
  		c-0.6,0-2-0.3-2,1.5c0,1.8,0.7,2.9,1,3.2c0.3,0.2,0.5,0.2,0.4,0.6c-0.1,0.4-0.1,0.6,0,0.9c0.1,0.3-0.1,0.3-0.9,1.1
  		c-0.8,0.8-0.3,1.6,0.1,1.6c0.4,0,0.9,0.4,0.4,1c-0.4,0.6-0.9,0.8-0.6,1.5c0.2,0.6,0.8,0.7,1.1,0.6c0.3-0.1,1.5,0,2,0
  		c0.3,0,2.8,0,3.1,0c0.4,0,1.7-0.1,2,0c0.3,0.1,0.9,0,1.1-0.6c0.2-0.6-0.2-0.9-0.6-1.5c-0.4-0.6,0.1-1,0.4-1c0.4,0,0.9-0.9,0.1-1.6
  		c-0.8-0.8-1-0.8-0.9-1.1c0.1-0.3,0-0.5,0-0.9C247.6,81.5,247.8,81.6,248.1,81.3"/>
  	<path class="st1" d="M239.4,63.5c0.1,0.9-1.2,4.5,4.1,4.6c5.3,0.1,5.8-2.8,5.3-3.8c-0.6-1-2.5-2.7-5.1-2.3
  		C241.7,62.2,239.4,62.5,239.4,63.5"/>
  	<path class="st1" d="M244,100.2c-6.1,0-12-1.2-17.6-3.5c-5.4-2.3-10.2-5.5-14.4-9.6c-4.2-4.1-7.4-8.9-9.7-14.3
  		c-2.4-5.5-3.6-11.4-3.6-17.5c0-6.1,1.2-12,3.6-17.5c2.3-5.4,5.5-10.2,9.7-14.3c4.2-4.1,9-7.4,14.4-9.6c5.6-2.3,11.5-3.5,17.6-3.5
  		c6.1,0,12,1.2,17.6,3.5c5.4,2.3,10.2,5.5,14.4,9.6c4.2,4.1,7.4,8.9,9.7,14.3c2.4,5.6,3.6,11.4,3.6,17.5c0,6.1-1.2,12-3.6,17.5
  		c-2.3,5.4-5.5,10.2-9.7,14.3c-4.2,4.1-9,7.4-14.4,9.6C256,99,250.1,100.2,244,100.2 M244,13.9c-22.9,0-41.6,18.5-41.6,41.3
  		c0,22.8,18.6,41.3,41.6,41.3c22.9,0,42.2-18.5,41.6-41.3C284.9,31.1,266.6,13.3,244,13.9"/>
  </g>
</g>
</svg>
